<?xml version="1.0" encoding="UTF-8"?>
<svg width="1254px" height="159px" viewBox="0 0 1254 159" version="1.1" xmlns="http://www.w3.org/2000/svg" xmlns:xlink="http://www.w3.org/1999/xlink">
    <!-- Generator: Sketch 49.3 (51167) - http://www.bohemiancoding.com/sketch -->
    <title>Apple TV</title>
    <desc>Created with Sketch.</desc>
    <defs>
        <rect id="path-1" x="0.84375" y="0.59375" width="600" height="157.519531" rx="10"></rect>
        <rect id="path-2" x="653.41236" y="0.59375" width="599.960938" height="157.519531" rx="10"></rect>
    </defs>
    <g id="Apple-TV" stroke="none" stroke-width="1" fill="none" fill-rule="evenodd">
        <g id="Rectangle-Copy-7">
            <use fill="#EFEFEF" fill-rule="evenodd" xlink:href="#path-1"></use>
            <rect stroke="#099ABE" stroke-width="3" x="2.34375" y="2.09375" width="597" height="154.519531" rx="10"></rect>
        </g>
        <polyline id="Path-3-Copy-20" stroke="#099ABE" stroke-width="3" stroke-linecap="round" stroke-linejoin="round" points="614.725873 63 640.324407 87.9522117 614.725873 110.173775"></polyline>
        <g id="Rectangle-Copy-6">
            <use fill="#EFEFEF" fill-rule="evenodd" xlink:href="#path-2"></use>
            <rect stroke="#099ABE" stroke-width="3" x="654.91236" y="2.09375" width="596.960938" height="154.519531" rx="10"></rect>
        </g>
        <path d="M161.76375,65.36 C158.990403,65.36 156.570427,64.7666726 154.50375,63.58 C152.437073,62.3933274 150.850422,60.7066776 149.74375,58.52 C148.637078,56.3333224 148.08375,53.7866812 148.08375,50.88 C148.08375,47.9733188 148.637078,45.4333442 149.74375,43.26 C150.850422,41.0866558 152.437073,39.4066726 154.50375,38.22 C156.570427,37.0333274 158.990403,36.44 161.76375,36.44 C163.657093,36.44 165.443742,36.7333304 167.12375,37.32 C168.803758,37.9066696 170.217078,38.733328 171.36375,39.8 L169.64375,43.56 C168.363744,42.5466616 167.09709,41.806669 165.84375,41.34 C164.59041,40.873331 163.25709,40.64 161.84375,40.64 C159.123736,40.64 157.023757,41.5199912 155.54375,43.28 C154.063743,45.0400088 153.32375,47.5733168 153.32375,50.88 C153.32375,54.21335 154.063743,56.7599912 155.54375,58.52 C157.023757,60.2800088 159.123736,61.16 161.84375,61.16 C163.25709,61.16 164.59041,60.926669 165.84375,60.46 C167.09709,59.993331 168.363744,59.2533384 169.64375,58.24 L171.36375,62 C170.217078,63.066672 168.803758,63.8933304 167.12375,64.48 C165.443742,65.0666696 163.657093,65.36 161.76375,65.36 Z M176.08375,36.8 L186.48375,36.8 C191.097106,36.8 194.677071,38.033321 197.22375,40.5 C199.770429,42.966679 201.04375,46.4266444 201.04375,50.88 C201.04375,55.3333556 199.770429,58.7999876 197.22375,61.28 C194.677071,63.7600124 191.097106,65 186.48375,65 L176.08375,65 L176.08375,36.8 Z M186.16375,60.8 C192.643782,60.8 195.88375,57.4933664 195.88375,50.88 C195.88375,44.2933004 192.643782,41 186.16375,41 L181.24375,41 L181.24375,60.8 L186.16375,60.8 Z M225.20375,36.8 L230.04375,36.8 L230.04375,65 L226.16375,65 L211.04375,45.32 L211.04375,65 L206.24375,65 L206.24375,36.8 L210.08375,36.8 L225.20375,56.44 L225.20375,36.8 Z M235.80375,56.28 L235.80375,52.32 L247.72375,52.32 L247.72375,56.28 L235.80375,56.28 Z M260.12375,65 L260.12375,41.04 L250.92375,41.04 L250.92375,36.8 L274.48375,36.8 L274.48375,41.04 L265.28375,41.04 L265.28375,65 L260.12375,65 Z M297.52375,36.8 L302.56375,36.8 L302.56375,65 L297.52375,65 L297.52375,52.76 L283.08375,52.76 L283.08375,65 L278.00375,65 L278.00375,36.8 L283.08375,36.8 L283.08375,48.6 L297.52375,48.6 L297.52375,36.8 Z M308.64375,65 L308.64375,36.8 L327.12375,36.8 L327.12375,40.92 L313.72375,40.92 L313.72375,48.6 L326.32375,48.6 L326.32375,52.72 L313.72375,52.72 L313.72375,65 L308.64375,65 Z M330.96375,56.28 L330.96375,52.32 L342.88375,52.32 L342.88375,56.28 L330.96375,56.28 Z M361.44375,65.36 C358.670403,65.36 356.250427,64.7666726 354.18375,63.58 C352.117073,62.3933274 350.530422,60.7066776 349.42375,58.52 C348.317078,56.3333224 347.76375,53.7866812 347.76375,50.88 C347.76375,47.9733188 348.317078,45.4333442 349.42375,43.26 C350.530422,41.0866558 352.117073,39.4066726 354.18375,38.22 C356.250427,37.0333274 358.670403,36.44 361.44375,36.44 C363.337093,36.44 365.123742,36.7333304 366.80375,37.32 C368.483758,37.9066696 369.897078,38.733328 371.04375,39.8 L369.32375,43.56 C368.043744,42.5466616 366.77709,41.806669 365.52375,41.34 C364.27041,40.873331 362.93709,40.64 361.52375,40.64 C358.803736,40.64 356.703757,41.5199912 355.22375,43.28 C353.743743,45.0400088 353.00375,47.5733168 353.00375,50.88 C353.00375,54.21335 353.743743,56.7599912 355.22375,58.52 C356.703757,60.2800088 358.803736,61.16 361.52375,61.16 C362.93709,61.16 364.27041,60.926669 365.52375,60.46 C366.77709,59.993331 368.043744,59.2533384 369.32375,58.24 L371.04375,62 C369.897078,63.066672 368.483758,63.8933304 366.80375,64.48 C365.123742,65.0666696 363.337093,65.36 361.44375,65.36 Z M388.32375,65.36 C385.57707,65.36 383.197093,64.7733392 381.18375,63.6 C379.170407,62.4266608 377.617089,60.7466776 376.52375,58.56 C375.430411,56.3733224 374.88375,53.813348 374.88375,50.88 C374.88375,47.946652 375.423745,45.3933442 376.50375,43.22 C377.583755,41.0466558 379.137073,39.3733392 381.16375,38.2 C383.190427,37.0266608 385.57707,36.44 388.32375,36.44 C391.07043,36.44 393.450407,37.0266608 395.46375,38.2 C397.477093,39.3733392 399.023745,41.0466558 400.10375,43.22 C401.183755,45.3933442 401.72375,47.946652 401.72375,50.88 C401.72375,53.813348 401.177089,56.3733224 400.08375,58.56 C398.990411,60.7466776 397.437093,62.4266608 395.42375,63.6 C393.410407,64.7733392 391.043764,65.36 388.32375,65.36 Z M388.32375,61.24 C390.91043,61.24 392.930409,60.3466756 394.38375,58.56 C395.837091,56.7733244 396.56375,54.21335 396.56375,50.88 C396.56375,47.54665 395.837091,44.9933422 394.38375,43.22 C392.930409,41.4466578 390.91043,40.56 388.32375,40.56 C385.710404,40.56 383.677091,41.4466578 382.22375,43.22 C380.770409,44.9933422 380.04375,47.54665 380.04375,50.88 C380.04375,54.21335 380.770409,56.7733244 382.22375,58.56 C383.677091,60.3466756 385.710404,61.24 388.32375,61.24 Z M430.56375,65 L424.96375,65 L420.12375,56 C419.670414,55.1466624 419.11042,54.5466684 418.44375,54.2 C417.77708,53.8533316 416.937088,53.68 415.92375,53.68 L412.00375,53.68 L412.00375,65 L406.92375,65 L406.92375,36.8 L419.40375,36.8 C422.603766,36.8 425.037075,37.5133262 426.70375,38.94 C428.370425,40.3666738 429.20375,42.4266532 429.20375,45.12 C429.20375,47.2800108 428.597089,49.059993 427.38375,50.46 C426.170411,51.860007 424.457094,52.7733312 422.24375,53.2 C423.737091,53.600002 424.937079,54.6533248 425.84375,56.36 L430.56375,65 Z M418.68375,49.72 C420.630426,49.72 422.057079,49.353337 422.96375,48.62 C423.870421,47.886663 424.32375,46.7600076 424.32375,45.24 C424.32375,43.6933256 423.870421,42.5666702 422.96375,41.86 C422.057079,41.1533298 420.630426,40.8 418.68375,40.8 L411.96375,40.8 L411.96375,49.72 L418.68375,49.72 Z M434.72375,65 L434.72375,36.8 L453.60375,36.8 L453.60375,40.88 L439.76375,40.88 L439.76375,48.64 L452.80375,48.64 L452.80375,52.68 L439.76375,52.68 L439.76375,60.92 L453.60375,60.92 L453.60375,65 L434.72375,65 Z" id="CDN-THF-CORE" fill="#099ABE"></path>
        <path d="M924.492829,65 L924.492829,41.04 L915.292829,41.04 L915.292829,36.8 L938.852829,36.8 L938.852829,41.04 L929.652829,41.04 L929.652829,65 L924.492829,65 Z M961.892829,36.8 L966.932829,36.8 L966.932829,65 L961.892829,65 L961.892829,52.76 L947.452829,52.76 L947.452829,65 L942.372829,65 L942.372829,36.8 L947.452829,36.8 L947.452829,48.6 L961.892829,48.6 L961.892829,36.8 Z M973.012829,65 L973.012829,36.8 L991.492829,36.8 L991.492829,40.92 L978.092829,40.92 L978.092829,48.6 L990.692829,48.6 L990.692829,52.72 L978.092829,52.72 L978.092829,65 L973.012829,65 Z" id="THF-Copy-2" fill="#099ABE"></path>
        <g id="Group-5" transform="translate(86.343750, 90.000000)">
            <g id="Group-10" transform="translate(173.843750, 0.000000)">
                <g id="Group-4" transform="translate(0.472656, 0.000000)">
                    <rect id="Rectangle-Copy-9" fill="#FFFFFF" x="0.943359375" y="0.657199838" width="252.469001" height="35.3428002" rx="6"></rect>
                    <path d="M17.2203602,28.066 L17.2203602,13.69 L11.7003602,13.69 L11.7003602,11.146 L25.8363602,11.146 L25.8363602,13.69 L20.3163602,13.69 L20.3163602,28.066 L17.2203602,28.066 Z M39.6603602,11.146 L42.6843602,11.146 L42.6843602,28.066 L39.6603602,28.066 L39.6603602,20.722 L30.9963602,20.722 L30.9963602,28.066 L27.9483602,28.066 L27.9483602,11.146 L30.9963602,11.146 L30.9963602,18.226 L39.6603602,18.226 L39.6603602,11.146 Z M46.3323602,28.066 L46.3323602,11.146 L57.4203602,11.146 L57.4203602,13.618 L49.3803602,13.618 L49.3803602,18.226 L56.9403602,18.226 L56.9403602,20.698 L49.3803602,20.698 L49.3803602,28.066 L46.3323602,28.066 Z M59.7243602,22.834 L59.7243602,20.458 L66.8763602,20.458 L66.8763602,22.834 L59.7243602,22.834 Z M74.3163602,28.066 L74.3163602,13.69 L68.7963602,13.69 L68.7963602,11.146 L82.9323602,11.146 L82.9323602,13.69 L77.4123602,13.69 L77.4123602,28.066 L74.3163602,28.066 Z M96.7563602,11.146 L99.7803602,11.146 L99.7803602,28.066 L96.7563602,28.066 L96.7563602,20.722 L88.0923602,20.722 L88.0923602,28.066 L85.0443602,28.066 L85.0443602,11.146 L88.0923602,11.146 L88.0923602,18.226 L96.7563602,18.226 L96.7563602,11.146 Z M103.42836,28.066 L103.42836,11.146 L114.75636,11.146 L114.75636,13.594 L106.45236,13.594 L106.45236,18.25 L114.27636,18.25 L114.27636,20.674 L106.45236,20.674 L106.45236,25.618 L114.75636,25.618 L114.75636,28.066 L103.42836,28.066 Z M131.65236,11.146 L134.07636,11.146 L134.07636,28.066 L131.34036,28.066 L131.34036,16.882 L126.87636,25.33 L124.81236,25.33 L120.32436,17.002 L120.34836,28.066 L117.61236,28.066 L117.61236,11.146 L120.06036,11.146 L125.86836,22.21 L131.65236,11.146 Z M137.74836,28.066 L137.74836,11.146 L149.07636,11.146 L149.07636,13.594 L140.77236,13.594 L140.77236,18.25 L148.59636,18.25 L148.59636,20.674 L140.77236,20.674 L140.77236,25.618 L149.07636,25.618 L149.07636,28.066 L137.74836,28.066 Z M151.69236,22.834 L151.69236,20.458 L158.84436,20.458 L158.84436,22.834 L151.69236,22.834 Z M177.01236,28.066 L173.24436,28.066 L165.39636,20.194 L165.39636,28.066 L162.30036,28.066 L162.30036,11.146 L165.39636,11.146 L165.39636,18.706 L172.93236,11.146 L176.62836,11.146 L168.44436,19.282 L177.01236,28.066 Z M178.14036,28.066 L178.14036,11.146 L189.46836,11.146 L189.46836,13.594 L181.16436,13.594 L181.16436,18.25 L188.98836,18.25 L188.98836,20.674 L181.16436,20.674 L181.16436,25.618 L189.46836,25.618 L189.46836,28.066 L178.14036,28.066 Z M203.65236,11.146 L206.55636,11.146 L206.55636,28.066 L204.22836,28.066 L195.15636,16.258 L195.15636,28.066 L192.27636,28.066 L192.27636,11.146 L194.58036,11.146 L203.65236,22.93 L203.65236,11.146 Z M210.20436,11.146 L216.44436,11.146 C219.212374,11.146 221.360353,11.8859926 222.88836,13.366 C224.416368,14.8460074 225.18036,16.9219866 225.18036,19.594 C225.18036,22.2660134 224.416368,24.3459926 222.88836,25.834 C221.360353,27.3220074 219.212374,28.066 216.44436,28.066 L210.20436,28.066 L210.20436,11.146 Z M216.25236,25.546 C220.14038,25.546 222.08436,23.5620198 222.08436,19.594 C222.08436,15.6419802 220.14038,13.666 216.25236,13.666 L213.30036,13.666 L213.30036,25.546 L216.25236,25.546 Z M235.83636,28.282 C234.188352,28.282 232.760366,27.9300035 231.55236,27.226 C230.344354,26.5219965 229.412363,25.5140066 228.75636,24.202 C228.100357,22.8899934 227.77236,21.3540088 227.77236,19.594 C227.77236,17.8339912 228.096357,16.3020065 228.74436,14.998 C229.392363,13.6939935 230.324354,12.6900035 231.54036,11.986 C232.756366,11.2819965 234.188352,10.93 235.83636,10.93 C237.484368,10.93 238.912354,11.2819965 240.12036,11.986 C241.328366,12.6900035 242.256357,13.6939935 242.90436,14.998 C243.552363,16.3020065 243.87636,17.8339912 243.87636,19.594 C243.87636,21.3540088 243.548363,22.8899934 242.89236,24.202 C242.236357,25.5140066 241.304366,26.5219965 240.09636,27.226 C238.888354,27.9300035 237.468368,28.282 235.83636,28.282 Z M235.83636,25.81 C237.388368,25.81 238.600356,25.2740054 239.47236,24.202 C240.344365,23.1299946 240.78036,21.59401 240.78036,19.594 C240.78036,17.59399 240.344365,16.0620053 239.47236,14.998 C238.600356,13.9339947 237.388368,13.402 235.83636,13.402 C234.268352,13.402 233.048365,13.9339947 232.17636,14.998 C231.304356,16.0620053 230.86836,17.59399 230.86836,19.594 C230.86836,21.59401 231.304356,23.1299946 232.17636,24.202 C233.048365,25.2740054 234.268352,25.81 235.83636,25.81 Z" id="THF-THEME-KENDO-Copy-3" fill="#099ABE"></path>
                </g>
            </g>
            <g id="Group-9" transform="translate(0.843750, 0.000000)">
                <rect id="Rectangle-Copy-10" fill="#FFFFFF" x="0.67015625" y="0.657199838" width="157.535156" height="35.3428002" rx="6"></rect>
                <path d="M14.5640938,27 L14.5640938,12.624 L9.04409375,12.624 L9.04409375,10.08 L23.1800938,10.08 L23.1800938,12.624 L17.6600938,12.624 L17.6600938,27 L14.5640938,27 Z M37.0040937,10.08 L40.0280937,10.08 L40.0280937,27 L37.0040937,27 L37.0040937,19.656 L28.3400938,19.656 L28.3400938,27 L25.2920938,27 L25.2920938,10.08 L28.3400938,10.08 L28.3400938,17.16 L37.0040937,17.16 L37.0040937,10.08 Z M43.6760938,27 L43.6760938,10.08 L54.7640938,10.08 L54.7640938,12.552 L46.7240938,12.552 L46.7240938,17.16 L54.2840938,17.16 L54.2840938,19.632 L46.7240938,19.632 L46.7240938,27 L43.6760938,27 Z M57.0680938,21.768 L57.0680938,19.392 L64.2200938,19.392 L64.2200938,21.768 L57.0680938,21.768 Z M71.6600937,27 L71.6600937,12.624 L66.1400937,12.624 L66.1400937,10.08 L80.2760937,10.08 L80.2760937,12.624 L74.7560937,12.624 L74.7560937,27 L71.6600937,27 Z M94.1000938,10.08 L97.1240938,10.08 L97.1240938,27 L94.1000938,27 L94.1000938,19.656 L85.4360938,19.656 L85.4360938,27 L82.3880938,27 L82.3880938,10.08 L85.4360938,10.08 L85.4360938,17.16 L94.1000938,17.16 L94.1000938,10.08 Z M100.772094,27 L100.772094,10.08 L112.100094,10.08 L112.100094,12.528 L103.796094,12.528 L103.796094,17.184 L111.620094,17.184 L111.620094,19.608 L103.796094,19.608 L103.796094,24.552 L112.100094,24.552 L112.100094,27 L100.772094,27 Z M128.996094,10.08 L131.420094,10.08 L131.420094,27 L128.684094,27 L128.684094,15.816 L124.220094,24.264 L122.156094,24.264 L117.668094,15.936 L117.692094,27 L114.956094,27 L114.956094,10.08 L117.404094,10.08 L123.212094,21.144 L128.996094,10.08 Z M135.092094,27 L135.092094,10.08 L146.420094,10.08 L146.420094,12.528 L138.116094,12.528 L138.116094,17.184 L145.940094,17.184 L145.940094,19.608 L138.116094,19.608 L138.116094,24.552 L146.420094,24.552 L146.420094,27 L135.092094,27 Z" id="THF-THEME-Copy-3" fill="#099ABE"></path>
            </g>
        </g>
        <g id="Group-7" transform="translate(722.392829, 90.000000)">
            <g id="Group-3" transform="translate(0.252204, 0.000000)">
                <rect id="Rectangle-Copy-11" fill="#FFFFFF" x="0.0727713848" y="0.657199838" width="100.079572" height="35.3428002" rx="6"></rect>
                <path d="M16.0743726,27.599 L16.0743726,13.223 L10.5543726,13.223 L10.5543726,10.679 L24.6903726,10.679 L24.6903726,13.223 L19.1703726,13.223 L19.1703726,27.599 L16.0743726,27.599 Z M38.5143726,10.679 L41.5383726,10.679 L41.5383726,27.599 L38.5143726,27.599 L38.5143726,20.255 L29.8503726,20.255 L29.8503726,27.599 L26.8023726,27.599 L26.8023726,10.679 L29.8503726,10.679 L29.8503726,17.759 L38.5143726,17.759 L38.5143726,10.679 Z M45.1863726,27.599 L45.1863726,10.679 L56.2743726,10.679 L56.2743726,13.151 L48.2343726,13.151 L48.2343726,17.759 L55.7943726,17.759 L55.7943726,20.231 L48.2343726,20.231 L48.2343726,27.599 L45.1863726,27.599 Z M58.5783726,22.367 L58.5783726,19.991 L65.7303726,19.991 L65.7303726,22.367 L58.5783726,22.367 Z M76.1703726,27.815 C73.850361,27.815 72.0903786,27.215006 70.8903726,26.015 C69.6903666,24.814994 69.0903726,23.0630115 69.0903726,20.759 L69.0903726,10.679 L72.1143726,10.679 L72.1143726,20.927 C72.1143726,22.3830073 72.4583691,23.4829963 73.1463726,24.227 C73.834376,24.9710037 74.8423659,25.343 76.1703726,25.343 C77.4823791,25.343 78.4823691,24.9670038 79.1703726,24.215 C79.858376,23.4629962 80.2023726,22.3670072 80.2023726,20.927 L80.2023726,10.679 L83.2263726,10.679 L83.2263726,20.759 C83.2263726,23.0470114 82.6263786,24.794994 81.4263726,26.003 C80.2263666,27.211006 78.4743841,27.815 76.1703726,27.815 Z M86.7783726,27.599 L86.7783726,10.679 L89.8743726,10.679 L89.8743726,27.599 L86.7783726,27.599 Z" id="THF-UI" fill="#099ABE"></path>
            </g>
        </g>
        <g id="Group-6" transform="translate(838.392829, 90.000000)">
            <g id="Group-2" transform="translate(0.252204, 0.000000)">
                <rect id="Rectangle-Copy-12" fill="#FFFFFF" x="0.5625" y="0.657199838" width="139" height="35.3428002" rx="6"></rect>
                <path d="M15.0527935,27.3655 L15.0527935,12.9895 L9.53279348,12.9895 L9.53279348,10.4455 L23.6687935,10.4455 L23.6687935,12.9895 L18.1487935,12.9895 L18.1487935,27.3655 L15.0527935,27.3655 Z M37.4927935,10.4455 L40.5167935,10.4455 L40.5167935,27.3655 L37.4927935,27.3655 L37.4927935,20.0215 L28.8287935,20.0215 L28.8287935,27.3655 L25.7807935,27.3655 L25.7807935,10.4455 L28.8287935,10.4455 L28.8287935,17.5255 L37.4927935,17.5255 L37.4927935,10.4455 Z M44.1647935,27.3655 L44.1647935,10.4455 L55.2527935,10.4455 L55.2527935,12.9175 L47.2127935,12.9175 L47.2127935,17.5255 L54.7727935,17.5255 L54.7727935,19.9975 L47.2127935,19.9975 L47.2127935,27.3655 L44.1647935,27.3655 Z M57.5567935,22.1335 L57.5567935,19.7575 L64.7087935,19.7575 L64.7087935,22.1335 L57.5567935,22.1335 Z M73.9007935,27.5815 C72.604787,27.5815 71.3887992,27.4055018 70.2527935,27.0535 C69.1167878,26.7014982 68.1567974,26.2055032 67.3727935,25.5655 L68.4047935,23.3095 C69.2207976,23.9335031 70.080789,24.3894986 70.9847935,24.6775 C71.888798,24.9655014 72.8687882,25.1095 73.9247935,25.1095 C75.0927993,25.1095 75.9927903,24.905502 76.6247935,24.4975 C77.2567966,24.089498 77.5727935,23.5175037 77.5727935,22.7815 C77.5727935,22.1414968 77.2807964,21.6535017 76.6967935,21.3175 C76.1127906,20.9814983 75.1408003,20.6615015 73.7807935,20.3575 C72.3727864,20.0534985 71.2287979,19.701502 70.3487935,19.3015 C69.4687891,18.901498 68.8047957,18.3895031 68.3567935,17.7655 C67.9087912,17.1414969 67.6847935,16.3495048 67.6847935,15.3895 C67.6847935,14.397495 67.9567908,13.5095039 68.5007935,12.7255 C69.0447962,11.9414961 69.8127885,11.3295022 70.8047935,10.8895 C71.7967984,10.4494978 72.940787,10.2295 74.2367935,10.2295 C75.4207994,10.2295 76.5487881,10.4094982 77.6207935,10.7695 C78.6927988,11.1295018 79.57279,11.6214969 80.2607935,12.2455 L79.2287935,14.5015 C77.724786,13.301494 76.0608026,12.7015 74.2367935,12.7015 C73.148788,12.7015 72.2887966,12.9214978 71.6567935,13.3615 C71.0247903,13.8015022 70.7087935,14.4134961 70.7087935,15.1975 C70.7087935,15.8535033 70.9887907,16.3574982 71.5487935,16.7095 C72.1087963,17.0615018 73.0607868,17.3894985 74.4047935,17.6935 C75.8288006,18.0135016 76.984789,18.369498 77.8727935,18.7615 C78.7607979,19.153502 79.4407911,19.653497 79.9127935,20.2615 C80.3847958,20.869503 80.6207935,21.6374954 80.6207935,22.5655 C80.6207935,23.573505 80.3527962,24.4574962 79.8167935,25.2175 C79.2807908,25.9775038 78.5047986,26.561498 77.4887935,26.9695 C76.4727884,27.377502 75.2768004,27.5815 73.9007935,27.5815 Z M97.5407935,10.4455 L90.6767935,19.5655 L90.6767935,27.3655 L87.5807935,27.3655 L87.5807935,19.5655 L80.7407935,10.4455 L84.2207935,10.4455 L89.1167935,17.0935 L94.0367935,10.4455 L97.5407935,10.4455 Z M109.804793,10.4455 L112.708793,10.4455 L112.708793,27.3655 L110.380793,27.3655 L101.308793,15.5575 L101.308793,27.3655 L98.4287935,27.3655 L98.4287935,10.4455 L100.732793,10.4455 L109.804793,22.2295 L109.804793,10.4455 Z M124.036793,27.5815 C122.372785,27.5815 120.9208,27.2255036 119.680793,26.5135 C118.440787,25.8014964 117.488797,24.7895066 116.824793,23.4775 C116.16079,22.1654934 115.828793,20.6375087 115.828793,18.8935 C115.828793,17.1494913 116.16079,15.6255065 116.824793,14.3215 C117.488797,13.0174935 118.440787,12.0095036 119.680793,11.2975 C120.9208,10.5854964 122.372785,10.2295 124.036793,10.2295 C125.172799,10.2295 126.244788,10.4054982 127.252793,10.7575 C128.260799,11.1095018 129.10879,11.6054968 129.796793,12.2455 L128.764793,14.5015 C127.99679,13.893497 127.236797,13.4495014 126.484793,13.1695 C125.73279,12.8894986 124.932798,12.7495 124.084793,12.7495 C122.452785,12.7495 121.192798,13.2774947 120.304793,14.3335 C119.416789,15.3895053 118.972793,16.9094901 118.972793,18.8935 C118.972793,20.89351 119.416789,22.4214947 120.304793,23.4775 C121.192798,24.5335053 122.452785,25.0615 124.084793,25.0615 C124.932798,25.0615 125.73279,24.9215014 126.484793,24.6415 C127.236797,24.3614986 127.99679,23.917503 128.764793,23.3095 L129.796793,25.5655 C129.10879,26.2055032 128.260799,26.7014982 127.252793,27.0535 C126.244788,27.4055018 125.172799,27.5815 124.036793,27.5815 Z" id="THF-SYNC" fill="#099ABE"></path>
            </g>
        </g>
        <g id="Group-8" transform="translate(988.392829, 90.000000)">
            <g id="Group" transform="translate(0.252204, 0.000000)">
                <rect id="Rectangle-Copy-13" fill="#FFFFFF" x="5.24703536" y="0.657199838" width="188.801232" height="35.3428002" rx="6"></rect>
                <path d="M17.8562669,27.3655 L17.8562669,12.9895 L12.3362669,12.9895 L12.3362669,10.4455 L26.4722669,10.4455 L26.4722669,12.9895 L20.9522669,12.9895 L20.9522669,27.3655 L17.8562669,27.3655 Z M40.2962669,10.4455 L43.3202669,10.4455 L43.3202669,27.3655 L40.2962669,27.3655 L40.2962669,20.0215 L31.6322669,20.0215 L31.6322669,27.3655 L28.5842669,27.3655 L28.5842669,10.4455 L31.6322669,10.4455 L31.6322669,17.5255 L40.2962669,17.5255 L40.2962669,10.4455 Z M46.9682669,27.3655 L46.9682669,10.4455 L58.0562669,10.4455 L58.0562669,12.9175 L50.0162669,12.9175 L50.0162669,17.5255 L57.5762669,17.5255 L57.5762669,19.9975 L50.0162669,19.9975 L50.0162669,27.3655 L46.9682669,27.3655 Z M60.3602669,22.1335 L60.3602669,19.7575 L67.5122669,19.7575 L67.5122669,22.1335 L60.3602669,22.1335 Z M76.7042669,27.5815 C75.4082604,27.5815 74.1922726,27.4055018 73.0562669,27.0535 C71.9202612,26.7014982 70.9602708,26.2055032 70.1762669,25.5655 L71.2082669,23.3095 C72.024271,23.9335031 72.8842624,24.3894986 73.7882669,24.6775 C74.6922714,24.9655014 75.6722616,25.1095 76.7282669,25.1095 C77.8962727,25.1095 78.7962637,24.905502 79.4282669,24.4975 C80.06027,24.089498 80.3762669,23.5175037 80.3762669,22.7815 C80.3762669,22.1414968 80.0842698,21.6535017 79.5002669,21.3175 C78.916264,20.9814983 77.9442737,20.6615015 76.5842669,20.3575 C75.1762598,20.0534985 74.0322713,19.701502 73.1522669,19.3015 C72.2722625,18.901498 71.6082691,18.3895031 71.1602669,17.7655 C70.7122646,17.1414969 70.4882669,16.3495048 70.4882669,15.3895 C70.4882669,14.397495 70.7602642,13.5095039 71.3042669,12.7255 C71.8482696,11.9414961 72.6162619,11.3295022 73.6082669,10.8895 C74.6002718,10.4494978 75.7442604,10.2295 77.0402669,10.2295 C78.2242728,10.2295 79.3522615,10.4094982 80.4242669,10.7695 C81.4962722,11.1295018 82.3762634,11.6214969 83.0642669,12.2455 L82.0322669,14.5015 C80.5282594,13.301494 78.864276,12.7015 77.0402669,12.7015 C75.9522614,12.7015 75.09227,12.9214978 74.4602669,13.3615 C73.8282637,13.8015022 73.5122669,14.4134961 73.5122669,15.1975 C73.5122669,15.8535033 73.7922641,16.3574982 74.3522669,16.7095 C74.9122697,17.0615018 75.8642602,17.3894985 77.2082669,17.6935 C78.632274,18.0135016 79.7882624,18.369498 80.6762669,18.7615 C81.5642713,19.153502 82.2442645,19.653497 82.7162669,20.2615 C83.1882692,20.869503 83.4242669,21.6374954 83.4242669,22.5655 C83.4242669,23.573505 83.1562696,24.4574962 82.6202669,25.2175 C82.0842642,25.9775038 81.308272,26.561498 80.2922669,26.9695 C79.2762618,27.377502 78.0802738,27.5815 76.7042669,27.5815 Z M90.2642669,27.3655 L90.2642669,12.9895 L84.7442669,12.9895 L84.7442669,10.4455 L98.8802669,10.4455 L98.8802669,12.9895 L93.3602669,12.9895 L93.3602669,27.3655 L90.2642669,27.3655 Z M108.528267,27.5815 C106.880259,27.5815 105.452273,27.2295035 104.244267,26.5255 C103.036261,25.8214965 102.10427,24.8135066 101.448267,23.5015 C100.792264,22.1894934 100.464267,20.6535088 100.464267,18.8935 C100.464267,17.1334912 100.788264,15.6015065 101.436267,14.2975 C102.08427,12.9934935 103.016261,11.9895035 104.232267,11.2855 C105.448273,10.5814965 106.880259,10.2295 108.528267,10.2295 C110.176275,10.2295 111.604261,10.5814965 112.812267,11.2855 C114.020273,11.9895035 114.948264,12.9934935 115.596267,14.2975 C116.24427,15.6015065 116.568267,17.1334912 116.568267,18.8935 C116.568267,20.6535088 116.24027,22.1894934 115.584267,23.5015 C114.928264,24.8135066 113.996273,25.8214965 112.788267,26.5255 C111.580261,27.2295035 110.160275,27.5815 108.528267,27.5815 Z M108.528267,25.1095 C110.080275,25.1095 111.292263,24.5735054 112.164267,23.5015 C113.036271,22.4294946 113.472267,20.89351 113.472267,18.8935 C113.472267,16.89349 113.036271,15.3615053 112.164267,14.2975 C111.292263,13.2334947 110.080275,12.7015 108.528267,12.7015 C106.960259,12.7015 105.740271,13.2334947 104.868267,14.2975 C103.996263,15.3615053 103.560267,16.89349 103.560267,18.8935 C103.560267,20.89351 103.996263,22.4294946 104.868267,23.5015 C105.740271,24.5735054 106.960259,25.1095 108.528267,25.1095 Z M133.872267,27.3655 L130.512267,27.3655 L127.608267,21.9655 C127.336266,21.4534974 127.000269,21.093501 126.600267,20.8855 C126.200265,20.677499 125.69627,20.5735 125.088267,20.5735 L122.736267,20.5735 L122.736267,27.3655 L119.688267,27.3655 L119.688267,10.4455 L127.176267,10.4455 C129.096276,10.4455 130.556262,10.8734957 131.556267,11.7295 C132.556272,12.5855043 133.056267,13.8214919 133.056267,15.4375 C133.056267,16.7335065 132.692271,17.8014958 131.964267,18.6415 C131.236263,19.4815042 130.208274,20.0294987 128.880267,20.2855 C129.776271,20.5255012 130.496264,21.1574949 131.040267,22.1815 L133.872267,27.3655 Z M126.744267,18.1975 C127.912273,18.1975 128.768264,17.9775022 129.312267,17.5375 C129.85627,17.0974978 130.128267,16.4215046 130.128267,15.5095 C130.128267,14.5814954 129.85627,13.9055021 129.312267,13.4815 C128.768264,13.0574979 127.912273,12.8455 126.744267,12.8455 L122.712267,12.8455 L122.712267,18.1975 L126.744267,18.1975 Z M149.304267,27.3655 L147.600267,23.4055 L139.368267,23.4055 L137.664267,27.3655 L134.544267,27.3655 L142.200267,10.4455 L144.720267,10.4455 L152.376267,27.3655 L149.304267,27.3655 Z M140.376267,21.0055 L146.568267,21.0055 L143.472267,13.8055 L140.376267,21.0055 Z M168.288267,18.2215 L168.288267,26.3335 C167.520263,26.7175019 166.588272,27.0214989 165.492267,27.2455 C164.396261,27.4695011 163.280273,27.5815 162.144267,27.5815 C160.400258,27.5815 158.888273,27.2335035 157.608267,26.5375 C156.32826,25.8414965 155.34827,24.8415065 154.668267,23.5375 C153.988263,22.2334935 153.648267,20.685509 153.648267,18.8935 C153.648267,17.1174911 153.988263,15.5775065 154.668267,14.2735 C155.34827,12.9694935 156.316261,11.9695035 157.572267,11.2735 C158.828273,10.5774965 160.304258,10.2295 162.000267,10.2295 C163.184273,10.2295 164.296262,10.4014983 165.336267,10.7455 C166.376272,11.0895017 167.240263,11.5814968 167.928267,12.2215 L166.896267,14.4535 C166.112263,13.845497 165.340271,13.4095013 164.580267,13.1455 C163.820263,12.8814987 162.984271,12.7495 162.072267,12.7495 C160.328258,12.7495 159.012271,13.2654948 158.124267,14.2975 C157.236262,15.3295052 156.792267,16.8614898 156.792267,18.8935 C156.792267,23.0535208 158.616249,25.1335 162.264267,25.1335 C163.352272,25.1335 164.440261,24.9815015 165.528267,24.6775 L165.528267,20.4295 L161.880267,20.4295 L161.880267,18.2215 L168.288267,18.2215 Z M171.768267,27.3655 L171.768267,10.4455 L183.096267,10.4455 L183.096267,12.8935 L174.792267,12.8935 L174.792267,17.5495 L182.616267,17.5495 L182.616267,19.9735 L174.792267,19.9735 L174.792267,24.9175 L183.096267,24.9175 L183.096267,27.3655 L171.768267,27.3655 Z" id="THF-STORAGE" fill="#099ABE"></path>
                <polyline id="Path-3-Copy-15" points="0 16.2602328 7.85445723 23.9163773 0 30.7346706"></polyline>
            </g>
        </g>
    </g>
</svg>